<?xml version="1.0" encoding="UTF-8"?>
<svg xmlns="http://www.w3.org/2000/svg" viewBox="0 0 896.09 541.89">
  <defs>
    <style>
      .cls-1 {
        fill: #9aa0a6;
      }

      .cls-2, .cls-3, .cls-4 {
        fill: #fff;
      }

      .cls-5 {
        letter-spacing: -.06em;
      }

      .cls-6, .cls-7, .cls-8 {
        isolation: isolate;
      }

      .cls-3 {
        font-size: 9px;
      }

      .cls-3, .cls-4 {
        font-family: ArialNarrow, Arial;
      }

      .cls-9 {
        letter-spacing: -.02em;
      }

      .cls-4 {
        font-size: 8px;
      }

      .cls-10 {
        fill: #5f6368;
      }

      .cls-11 {
        letter-spacing: -.09em;
      }

      .cls-7 {
        font-family: Arial-BoldMT, Arial;
        font-size: 12px;
        font-weight: 700;
      }

      .cls-12 {
        fill: #e8571a;
      }

      .cls-8 {
        font-family: ArialMT, Arial;
        font-size: 10px;
      }

      .cls-13 {
        letter-spacing: -.01em;
      }

      .cls-14 {
        letter-spacing: -.04em;
      }
    </style>
  </defs>
  <g id="Capa_2" data-name="Capa 2">
    <rect class="cls-2" width="896.09" height="541.89"/>
  </g>
  <g id="Capa_1" data-name="Capa 1">
    <g id="leaves">
      <rect id="path0" class="cls-10" x="33.71" y="33.37" width="325.29" height="14.53"/>
      <rect id="path1" class="cls-10" x="362.03" y="33.37" width="189.66" height="14.53"/>
      <rect id="path2" class="cls-12" x="33.71" y="53.03" width="396.61" height="253.86"/>
      <rect id="path3" class="cls-12" x="33.71" y="308.61" width="396.61" height="202.58"/>
      <rect id="path4" class="cls-12" x="432.02" y="53.03" width="119.67" height="263.27"/>
      <rect id="path5" class="cls-12" x="432.02" y="318.01" width="119.67" height="151.29"/>
      <rect id="path6" class="cls-12" x="432.02" y="471.01" width="74.49" height="40.17"/>
      <rect id="path7" class="cls-12" x="508.78" y="471.01" width="42.91" height="40.17"/>
      <g>
        <rect id="path8" class="cls-1" x="556.82" y="33.37" width="114.79" height="91.46"/>
        <rect id="path9" class="cls-1" x="674.4" y="33.37" width="113.39" height="91.46"/>
        <rect id="path10" class="cls-1" x="556.82" y="126.54" width="75.59" height="104.28"/>
        <rect id="path11" class="cls-1" x="635.21" y="126.54" width="74.19" height="104.28"/>
        <rect id="path12" class="cls-1" x="712.2" y="126.54" width="75.59" height="104.28"/>
        <rect id="path13" class="cls-1" x="556.82" y="232.53" width="75.59" height="68.38"/>
        <rect id="path14" class="cls-1" x="635.21" y="232.53" width="74.19" height="68.38"/>
        <rect id="path15" class="cls-1" x="712.2" y="232.53" width="75.59" height="68.38"/>
        <rect id="path16" class="cls-1" x="556.82" y="302.62" width="90.99" height="56.41"/>
        <rect id="path17" class="cls-1" x="650.61" y="302.62" width="43.39" height="56.41"/>
        <rect id="path18" class="cls-1" x="696.8" y="302.62" width="44.79" height="56.41"/>
        <rect id="path19" class="cls-1" x="744.39" y="302.62" width="43.39" height="56.41"/>
        <rect id="path20" class="cls-1" x="556.82" y="360.75" width="55.99" height="45.3"/>
        <rect id="path21" class="cls-1" x="615.61" y="360.75" width="55.99" height="45.3"/>
        <rect id="path22" class="cls-1" x="674.4" y="360.75" width="54.59" height="45.3"/>
        <rect id="path23" class="cls-1" x="731.8" y="360.75" width="55.99" height="45.3"/>
        <rect id="path24" class="cls-1" x="556.82" y="407.76" width="75.59" height="33.34"/>
        <rect id="path25" class="cls-1" x="556.82" y="442.8" width="75.59" height="33.34"/>
        <rect id="path26" class="cls-1" x="556.82" y="477.85" width="75.59" height="33.34"/>
        <rect id="path27" class="cls-1" x="635.21" y="407.76" width="48.99" height="50.43"/>
        <rect id="path28" class="cls-1" x="687" y="407.76" width="48.99" height="50.43"/>
        <rect id="path29" class="cls-1" x="738.8" y="407.76" width="48.99" height="50.43"/>
        <rect id="path30" class="cls-1" x="635.21" y="459.9" width="100.79" height="24.79"/>
        <rect id="path31" class="cls-1" x="635.21" y="486.4" width="100.79" height="24.79"/>
        <rect id="path32" class="cls-1" x="738.8" y="459.9" width="48.99" height="51.29"/>
      </g>
    </g>
    <g id="legend">
      <g>
        <g>
          <g>
            <rect class="cls-10" x="806.19" y="58.74" width="15" height="15"/>
            <g class="cls-6">
              <text class="cls-8" transform="translate(826.19 71.24)"><tspan x="0" y="0">CF</tspan><tspan class="cls-9" x="13.33" y="0">T</tspan></text>
            </g>
          </g>
          <g>
            <rect class="cls-12" x="806.19" y="79.47" width="15" height="15"/>
            <g class="cls-6">
              <text class="cls-8" transform="translate(826.19 91.97)"><tspan x="0" y="0">I</tspan><tspan class="cls-9" x="2.78" y="0">P</tspan></text>
            </g>
          </g>
          <g>
            <rect class="cls-1" x="806.19" y="100.21" width="15" height="15"/>
            <g class="cls-6">
              <text class="cls-8" transform="translate(826.19 112.71)"><tspan x="0" y="0">Universidad</tspan></text>
            </g>
          </g>
        </g>
        <g class="cls-6">
          <text class="cls-7" transform="translate(806.19 43)"><tspan class="cls-9" x="0" y="0">T</tspan><tspan x="7.11" y="0">ipo</tspan></text>
        </g>
      </g>
    </g>
    <text class="cls-3" transform="translate(405.03 43.74)"><tspan x="0" y="0">CF</tspan><tspan class="cls-13" x="9.83" y="0">T</tspan><tspan x="14.22" y="0" xml:space="preserve"> de la Región de Coquimbo</tspan></text>
    <text class="cls-3" transform="translate(144.11 43.74)"><tspan x="0" y="0">CF</tspan><tspan class="cls-13" x="9.83" y="0">T</tspan><tspan x="14.22" y="0" xml:space="preserve"> de la Región Metropolitana</tspan></text>
    <text class="cls-3" transform="translate(208.82 181.67)"><tspan x="0" y="0">AIE</tspan><tspan class="cls-13" x="11.9" y="0">P</tspan></text>
    <text class="cls-3" transform="translate(203.5 419.32)"><tspan x="0" y="0">INACA</tspan><tspan class="cls-13" x="22.55" y="0">P</tspan></text>
    <text class="cls-3" transform="translate(476.89 181.67)"><tspan x="0" y="0">Duoc UC</tspan></text>
    <text class="cls-3" transform="translate(470.38 395.26)"><tspan x="0" y="0">Santo</tspan><tspan class="cls-13" x="19.29" y="0"> </tspan><tspan class="cls-11" x="21.21" y="0">T</tspan><tspan x="24.9" y="0">omás</tspan></text>
    <text class="cls-3" transform="translate(453.78 492.84)"><tspan x="0" y="0">I</tspan><tspan class="cls-13" x="2.05" y="0">P</tspan><tspan x="6.85" y="0" xml:space="preserve"> de Chile</tspan></text>
    <text class="cls-3" transform="translate(588.78 81.76)"><tspan x="0" y="0">U.</tspan><tspan class="cls-14" x="7.38" y="0"> </tspan><tspan x="9.03" y="0">Andrés Bello</tspan></text>
    <text class="cls-3" transform="translate(700.54 81.76)"><tspan x="0" y="0">U. Gabriela Mistral</tspan></text>
    <text class="cls-3" transform="translate(567.13 181.64)"><tspan x="0" y="0">U. del Desarrollo</tspan></text>
    <text class="cls-3" transform="translate(648.38 181.64)"><tspan x="0" y="0">U. Finis</tspan><tspan class="cls-13" x="25.01" y="0"> </tspan><tspan class="cls-11" x="26.94" y="0">T</tspan><tspan x="30.63" y="0">errae</tspan></text>
    <text class="cls-3" transform="translate(730.92 178.61)"><tspan x="0" y="0">U. Federico </tspan><tspan x="-1.03" y="10.8">Santa María</tspan></text>
    <text class="cls-3" transform="translate(576.36 269.39)"><tspan x="0" y="0">U. de Chile</tspan></text>
    <text class="cls-3" transform="translate(649.99 265.58)"><tspan x="0" y="0">U. de Santiago </tspan><tspan x="10.88" y="10.8">de Chile</tspan></text>
    <text class="cls-3" transform="translate(727.64 266.36)"><tspan x="0" y="0">U. del Bio Bio</tspan></text>
    <text class="cls-3" transform="translate(751.12 330.48)"><tspan x="0" y="0">U.</tspan><tspan class="cls-14" x="7.38" y="0"> </tspan><tspan x="9.03" y="0">Adolfo </tspan><tspan x="3.9" y="10.8">Ibañez</tspan></text>
    <text class="cls-3" transform="translate(568.82 380.8)"><tspan x="0" y="0">U.</tspan><tspan class="cls-14" x="7.38" y="0"> </tspan><tspan x="9.03" y="0">Austral </tspan><tspan x="2.46" y="10.8">de Chile</tspan></text>
    <text class="cls-3" transform="translate(623.71 380.8)"><tspan x="0" y="0">U. Bernardo </tspan><tspan x="3.49" y="10.8">O´Higgins</tspan></text>
    <text class="cls-3" transform="translate(683.65 380.8)"><tspan x="0" y="0">U. Católica </tspan><tspan x=".06" y="10.8">de</tspan><tspan class="cls-13" x="8.27" y="10.8"> </tspan><tspan class="cls-11" x="10.19" y="10.8">T</tspan><tspan x="13.88" y="10.8">emuco</tspan></text>
    <text class="cls-3" transform="translate(750.97 380.8)"><tspan x="0" y="0">U. de </tspan><tspan x="-10.88" y="10.8">Antofagasta</tspan></text>
    <text class="cls-3" transform="translate(744.9 434.33)"><tspan x="0" y="0">U. de</tspan><tspan class="cls-13" x="17.64" y="0"> </tspan><tspan class="cls-11" x="19.56" y="0">T</tspan><tspan x="23.26" y="0">alca</tspan></text>
    <text class="cls-3" transform="translate(569.65 464.21)"><tspan x="0" y="0">U. de</tspan><tspan class="cls-13" x="17.64" y="0"> </tspan><tspan class="cls-11" x="19.56" y="0">T</tspan><tspan x="23.26" y="0">arapacá</tspan></text>
    <text class="cls-3" transform="translate(659.78 475.75)"><tspan x="0" y="0">U. de </tspan><tspan class="cls-5" x="19.69" y="0">V</tspan><tspan x="24.07" y="0">alparaíso</tspan></text>
    <text class="cls-3" transform="translate(577.45 493.34)"><tspan x="0" y="0">U. de </tspan><tspan class="cls-13" x="19.69" y="0">V</tspan><tspan x="24.49" y="0">iña </tspan><tspan x="4.86" y="10.8">del Mar</tspan></text>
    <text class="cls-3" transform="translate(658.08 501.41)"><tspan x="0" y="0">U. Diego Portales</tspan></text>
    <text class="cls-3" transform="translate(748.32 488.31)"><tspan x="0" y="0">U. Mayor</tspan></text>
    <text class="cls-3" transform="translate(567.74 427.88)"><tspan x="0" y="0">U. de La Serena</tspan></text>
    <text class="cls-3" transform="translate(650.11 434.33)"><tspan x="0" y="0">UDL</tspan><tspan class="cls-14" x="14.76" y="0">A</tspan></text>
    <text class="cls-4" transform="translate(695.24 422.07)"><tspan x="0" y="0">U. de Playa </tspan><tspan x="3.1" y="9.6">Ancha de </tspan><tspan x="-3.65" y="19.2">Ciencias de la </tspan><tspan x="1.64" y="28.8">Educación</tspan></text>
    <text class="cls-3" transform="translate(578.17 330.48)"><tspan x="0" y="0">U.</tspan><tspan class="cls-13" x="7.38" y="0"> </tspan><tspan class="cls-11" x="9.3" y="0">T</tspan><tspan x="12.99" y="0">ecnológica </tspan><tspan x="1.78" y="10.8">Metropolitana</tspan></text>
    <text class="cls-3" transform="translate(659.39 330.48)"><tspan x="0" y="0">PUC de </tspan><tspan x="4.51" y="10.8">Chile</tspan></text>
    <text class="cls-3" transform="translate(708.25 330.48)"><tspan x="0" y="0">PUC de </tspan><tspan class="cls-5" x="-4.45" y="10.8">V</tspan><tspan x="-.07" y="10.8">alparaíso</tspan></text>
    <text class="cls-4" transform="translate(516.38 492.02)"><tspan x="0" y="0">IPLACEX</tspan></text>
  </g>
</svg>